<svg xmlns="http://www.w3.org/2000/svg" width="93" height="93" viewBox="0 0 93 93" version="1.1">
	<path d="M 40.235 5.029 C 40.798 7.245, 42.386 9.945, 43.764 11.029 C 46.355 13.067, 53 13.766, 53 12 C 53 11.450, 51.630 11, 49.955 11 C 46.181 11, 42 7.082, 42 3.545 C 42 2.036, 41.433 1, 40.606 1 C 39.476 1, 39.406 1.762, 40.235 5.029 M 30.825 2.500 C 30.478 3.050, 29.877 5.623, 29.489 8.217 C 28.730 13.288, 26.221 15.259, 23.452 12.960 C 22.316 12.017, 21.668 12.031, 20.475 13.021 C 19.109 14.155, 19.111 14.465, 20.499 15.999 C 22.546 18.261, 21.393 21, 18.393 21 C 16.667 21, 16 21.557, 16 23 C 16 24.321, 16.667 25, 17.965 25 C 20.916 25, 22.571 28.712, 20.593 30.897 C 18.329 33.398, 20.602 35.671, 23.103 33.407 C 25.288 31.429, 29 33.084, 29 36.035 C 29 37.333, 29.679 38, 31 38 C 32.443 38, 33 37.333, 33 35.607 C 33 32.607, 35.739 31.454, 38.001 33.501 C 39.490 34.849, 39.869 34.862, 40.914 33.604 C 41.849 32.477, 41.846 31.726, 40.900 30.211 C 39.295 27.642, 40.319 25.234, 43.189 24.828 C 46.189 24.402, 46.189 21.598, 43.189 21.172 C 40.303 20.763, 39.297 18.355, 40.924 15.750 C 42.476 13.265, 40.742 10.858, 38.800 12.800 C 37.169 14.431, 34.058 14.315, 33.400 12.600 C 33.105 11.830, 32.546 9.018, 32.159 6.350 C 31.772 3.683, 31.171 1.950, 30.825 2.500 M 27.894 16.188 C 23.340 17.730, 21.623 24.119, 24.750 27.886 C 30.722 35.079, 41.461 27.336, 37.021 19.039 C 35.677 16.528, 31.107 15.101, 27.894 16.188 M 27.223 18.557 C 24.583 20.405, 24.239 25.096, 26.571 27.429 C 30.728 31.585, 37.877 27.343, 36.431 21.580 C 35.331 17.196, 31.132 15.818, 27.223 18.557 M 39 38.393 C 39 40.270, 36.057 41.292, 34.462 39.969 C 32.826 38.611, 31.291 40.691, 32.809 42.209 C 34.133 43.533, 33.212 46, 31.393 46 C 30.627 46, 30 46.675, 30 47.500 C 30 48.325, 30.648 49, 31.441 49 C 33.529 49, 34.359 50.862, 33 52.500 C 31.386 54.445, 32.707 56.488, 34.576 54.937 C 36.318 53.491, 39 54.420, 39 56.469 C 39 58.705, 41.098 58.342, 41.710 56 C 42.264 53.881, 44.457 53.313, 45.510 55.016 C 46.707 56.952, 47.932 54.909, 47.342 51.961 C 46.787 49.185, 46.945 49, 49.875 49 C 51.986 49, 53 48.513, 53 47.500 C 53 46.487, 51.986 46, 49.875 46 C 46.965 46, 46.790 45.802, 47.326 43.118 C 48.018 39.658, 47.218 38.574, 45.205 40.245 C 43.996 41.248, 43.454 41.064, 42.241 39.236 C 40.565 36.713, 39 36.306, 39 38.393 M 36.750 43.080 C 34.074 44.638, 34.486 49.617, 37.451 51.560 C 40.547 53.588, 43.806 52.641, 45.057 49.349 C 47.021 44.185, 41.720 40.185, 36.750 43.080 M 18 51.893 C 18 54.347, 15.447 55.296, 12.985 53.759 C 10.089 51.950, 8.007 54.245, 10.273 56.749 C 12.131 58.802, 11.412 60.596, 8.511 61.146 C 5.752 61.669, 5.216 65, 7.891 65 C 10.713 65, 12.446 68.385, 10.467 70.028 C 8.251 71.866, 10.476 74.344, 12.953 72.797 C 15.336 71.309, 18 72.455, 18 74.969 C 18 76.333, 18.656 77, 20 77 C 21.344 77, 22 76.333, 22 74.969 C 22 72.429, 24.527 71.362, 26.555 73.046 C 28.709 74.833, 30.890 72.689, 29.423 70.225 C 28.859 69.276, 28.566 67.713, 28.772 66.750 C 29.090 65.264, 30.330 65, 37.002 65 C 45.858 65, 47.521 65.931, 48.560 71.467 C 49.236 75.071, 53 79.639, 53 76.855 C 53 76.055, 52.626 74.973, 52.169 74.450 C 51.711 73.927, 50.783 71.553, 50.105 69.172 C 49.120 65.711, 48.192 64.560, 45.469 63.422 C 43.596 62.640, 40.531 62, 38.657 62 C 30.428 62, 26.418 59.611, 29.140 56.331 C 30.814 54.314, 28.686 52.186, 26.669 53.860 C 24.781 55.427, 22 54.255, 22 51.893 C 22 50.667, 21.296 50, 20 50 C 18.704 50, 18 50.667, 18 51.893 M 15.635 58.073 C 10.304 62.266, 13.287 70.333, 20.169 70.333 C 26.572 70.333, 29.410 62.041, 24.365 58.073 C 22.916 56.933, 20.952 56, 20 56 C 19.048 56, 17.084 56.933, 15.635 58.073 M 53 86.558 L 53 92.892 58.250 91.344 C 68.473 88.328, 70 87.389, 70 84.118 C 70 80.507, 68.854 80.065, 59.750 80.156 L 53 80.225 53 86.558" stroke="none" fill="black" fill-rule="evenodd"/>
</svg>